<?xml version="1.0" encoding="utf-8"?>
<!-- Generator: Adobe Illustrator 24.0.2, SVG Export Plug-In . SVG Version: 6.00 Build 0)  -->
<svg version="1.1" id="Layer_1" xmlns="http://www.w3.org/2000/svg" xmlns:xlink="http://www.w3.org/1999/xlink" x="0px" y="0px"
	 viewBox="0 0 24 24" style="enable-background:new 0 0 24 24;" xml:space="preserve">
<style type="text/css">
	.st0{fill:#C4C4C4;}
	.st1{fill:none;}
</style>
<path class="st0" d="M19,7v3c0,0-2,0-2,0V7h-3c0,0,0-2,0-2h3V2h2v3h3v2H19z M16,11V8h-3V5H5C3.9,5,3,5.9,3,7v12c0,1.1,0.9,2,2,2h12
	c1.1,0,2-0.9,2-2v-8H16z M5,19l3-4l2,3l3-4l4,5H5z"/>
<path class="st1" d="M0,0h24v24H0V0z"/>
</svg>
