<svg xmlns="http://www.w3.org/2000/svg" width="20" height="15" viewBox="0 0 20 15"><defs><style>.a{fill:#fff;}</style></defs><path class="a" d="M18.125,19.5H1.875A1.875,1.875,0,0,1,0,17.625V6.375A1.875,1.875,0,0,1,1.875,4.5h16.25A1.875,1.875,0,0,1,20,6.375v11.25A1.875,1.875,0,0,1,18.125,19.5ZM4.375,6.688A2.188,2.188,0,1,0,6.563,8.875,2.187,2.187,0,0,0,4.375,6.688ZM2.5,17h15V12.625L14.081,9.206a.469.469,0,0,0-.663,0L8.125,14.5,5.956,12.331a.469.469,0,0,0-.663,0L2.5,15.125Z" transform="translate(0 -4.5)"/></svg>