<?xml version="1.0" encoding="utf-8"?>
<!-- Generator: Adobe Illustrator 16.0.0, SVG Export Plug-In . SVG Version: 6.00 Build 0)  -->
<!DOCTYPE svg PUBLIC "-//W3C//DTD SVG 1.1//EN" "http://www.w3.org/Graphics/SVG/1.1/DTD/svg11.dtd">
<svg version="1.1" id="Layer_1" focusable="false" xmlns="http://www.w3.org/2000/svg" xmlns:xlink="http://www.w3.org/1999/xlink"
	 x="0px" y="0px" width="14.3px" height="12.513px" viewBox="160.51 513.008 14.3 12.513"
	 enable-background="new 160.51 513.008 14.3 12.513" xml:space="preserve">
<path fill="#697070" d="M161.02,515.306h13.279c0.282,0,0.511-0.228,0.511-0.511v-1.276c0-0.282-0.229-0.511-0.511-0.511H161.02
	c-0.281,0-0.51,0.229-0.51,0.511v1.276C160.51,515.079,160.739,515.306,161.02,515.306z M161.02,520.415h13.279
	c0.282,0,0.511-0.229,0.511-0.512v-1.275c0-0.283-0.229-0.512-0.511-0.512H161.02c-0.281,0-0.51,0.229-0.51,0.512v1.275
	C160.51,520.185,160.739,520.415,161.02,520.415z M161.02,525.521h13.279c0.282,0,0.511-0.229,0.511-0.511v-1.276
	c0-0.282-0.229-0.511-0.511-0.511H161.02c-0.281,0-0.51,0.229-0.51,0.511v1.276C160.51,525.292,160.739,525.521,161.02,525.521z"/>
</svg>
