<svg id="Group_220" data-name="Group 220" xmlns="http://www.w3.org/2000/svg" width="20" height="20" viewBox="0 0 20 20">
  <rect id="Rectangle_599" data-name="Rectangle 599" width="20" height="20" fill="none"/>
  <path id="newspaper" d="M16.846,2.246v7.861a1.123,1.123,0,0,1-1.123,1.123V1.123A1.123,1.123,0,0,0,14.6,0H1.123A1.123,1.123,0,0,0,0,1.123V11.23a2.248,2.248,0,0,0,2.246,2.246H15.723a2.248,2.248,0,0,0,2.246-2.246V3.369A1.123,1.123,0,0,0,16.846,2.246ZM7.861,10.107H3.369V6.738H7.861Zm4.492-1.123H8.984V6.738h3.369Zm0-3.369H3.369V3.369h8.984Z" transform="translate(1 3)" fill="#fff"/>
</svg>
