<svg xmlns="http://www.w3.org/2000/svg" width="16" height="16" viewBox="0 0 16 16"><defs><style>.a{fill:#fff;}</style></defs><path class="a" d="M8.182,16H1a1,1,0,0,1-1-1V8.273c0-.023,0-.047,0-.07,0-.068,0-.135,0-.2a8,8,0,1,1,8.281,8C8.243,16,8.212,16,8.182,16Zm-.359-4.523a.564.564,0,0,0-.437.164.587.587,0,0,0-.148.406.566.566,0,0,0,.148.4.572.572,0,0,0,.437.158.582.582,0,0,0,.441-.158.56.56,0,0,0,.15-.4.58.58,0,0,0-.15-.406A.574.574,0,0,0,7.823,11.477Zm.151-5.989a1.114,1.114,0,0,1,.859.319,1.258,1.258,0,0,1,.3.884,1.632,1.632,0,0,1-.452,1.1l-.7.725a2.581,2.581,0,0,0-.548.822,3.217,3.217,0,0,0-.145,1.01h.994a1.822,1.822,0,0,1,.392-1.252l.586-.58a2.721,2.721,0,0,0,.87-1.853,1.986,1.986,0,0,0-.567-1.5,2.2,2.2,0,0,0-1.581-.545,2.332,2.332,0,0,0-1.588.535,1.818,1.818,0,0,0-.62,1.4H6.76a.985.985,0,0,1,.333-.778A1.3,1.3,0,0,1,7.974,5.488Z" transform="translate(0 0)"/></svg>