<?xml version="1.0" encoding="utf-8"?>
<!-- Generator: Adobe Illustrator 16.0.0, SVG Export Plug-In . SVG Version: 6.00 Build 0)  -->
<!DOCTYPE svg PUBLIC "-//W3C//DTD SVG 1.1//EN" "http://www.w3.org/Graphics/SVG/1.1/DTD/svg11.dtd">
<svg version="1.1" id="Layer_1" focusable="false" xmlns="http://www.w3.org/2000/svg" xmlns:xlink="http://www.w3.org/1999/xlink"
	 x="0px" y="0px" width="16.897px" height="11.265px" viewBox="140.625 119.985 16.897 11.265"
	 enable-background="new 140.625 119.985 16.897 11.265" xml:space="preserve">
<path fill="#0073BF" d="M157.42,125.189c-1.591-3.104-4.741-5.204-8.346-5.204c-3.606,0-6.756,2.103-8.347,5.204
	c-0.136,0.27-0.136,0.587,0,0.856c1.591,3.104,4.74,5.204,8.347,5.204c3.605,0,6.756-2.102,8.346-5.204
	C157.555,125.776,157.555,125.459,157.42,125.189z M149.073,129.843c-2.333,0-4.224-1.893-4.224-4.225
	c0-2.333,1.891-4.225,4.224-4.225c2.333,0,4.224,1.892,4.224,4.225c0.001,2.331-1.888,4.223-4.22,4.225
	C149.076,129.843,149.074,129.843,149.073,129.843z M149.073,122.802c-0.252,0.004-0.501,0.041-0.743,0.111
	c0.459,0.624,0.326,1.503-0.299,1.962c-0.495,0.364-1.168,0.364-1.664,0c-0.406,1.497,0.479,3.041,1.976,3.448
	c1.497,0.405,3.041-0.478,3.447-1.977c0.407-1.497-0.478-3.04-1.976-3.446C149.573,122.834,149.324,122.801,149.073,122.802z"/>
</svg>
