<?xml version="1.0" encoding="utf-8"?>
<!-- Generator: Adobe Illustrator 16.0.0, SVG Export Plug-In . SVG Version: 6.00 Build 0)  -->
<!DOCTYPE svg PUBLIC "-//W3C//DTD SVG 1.1//EN" "http://www.w3.org/Graphics/SVG/1.1/DTD/svg11.dtd">
<svg version="1.1" id="Layer_1" focusable="false" xmlns="http://www.w3.org/2000/svg" xmlns:xlink="http://www.w3.org/1999/xlink"
	 x="0px" y="0px" width="20.521px" height="13.681px" viewBox="212.163 69.876 20.521 13.681"
	 enable-background="new 212.163 69.876 20.521 13.681" xml:space="preserve">
<path fill="#FFFFFF" d="M232.567,78.003l-2.581,4.423c-0.407,0.701-1.159,1.132-1.969,1.132h-14.25c-0.66,0-1.071-0.716-0.739-1.286
	l2.58-4.423c0.409-0.7,1.159-1.132,1.97-1.132h14.249C232.488,76.717,232.899,77.433,232.567,78.003z M217.579,75.577h11.685v-1.71
	c0-0.945-0.766-1.71-1.71-1.71h-5.701l-2.28-2.28h-5.701c-0.944,0-1.71,0.766-1.71,1.71v9.905l2.461-4.218
	C215.236,76.227,216.367,75.577,217.579,75.577z"/>
</svg>
