<svg xmlns="http://www.w3.org/2000/svg" width="77.875" height="89" viewBox="0 0 77.875 89">
  <defs>
    <style>
      .cls-1 {
        fill: #f44336;
      }
    </style>
  </defs>
  <path id="Icon_awesome-trash-alt" data-name="Icon awesome-trash-alt" class="cls-1" d="M5.562,80.656A8.344,8.344,0,0,0,13.906,89H63.969a8.344,8.344,0,0,0,8.344-8.344V22.25H5.562Zm47.281-44.5a2.781,2.781,0,0,1,5.562,0V75.094a2.781,2.781,0,1,1-5.562,0Zm-16.687,0a2.781,2.781,0,0,1,5.563,0V75.094a2.781,2.781,0,0,1-5.562,0Zm-16.687,0a2.781,2.781,0,0,1,5.563,0V75.094a2.781,2.781,0,0,1-5.562,0ZM75.094,5.563H54.234L52.6,2.312A4.172,4.172,0,0,0,48.863,0H28.995a4.123,4.123,0,0,0-3.72,2.312L23.641,5.563H2.781A2.781,2.781,0,0,0,0,8.344v5.562a2.781,2.781,0,0,0,2.781,2.781H75.094a2.781,2.781,0,0,0,2.781-2.781V8.344A2.781,2.781,0,0,0,75.094,5.563Z"/>
</svg>
