<?xml version="1.0" encoding="utf-8"?>
<!-- Generator: Adobe Illustrator 16.0.0, SVG Export Plug-In . SVG Version: 6.00 Build 0)  -->
<!DOCTYPE svg PUBLIC "-//W3C//DTD SVG 1.1//EN" "http://www.w3.org/Graphics/SVG/1.1/DTD/svg11.dtd">
<svg version="1.1" id="Layer_1" xmlns="http://www.w3.org/2000/svg" xmlns:xlink="http://www.w3.org/1999/xlink" x="0px" y="0px"
	 width="23.594px" height="23.594px" viewBox="0 0 23.594 23.594" enable-background="new 0 0 23.594 23.594" xml:space="preserve">
<path id="Icon_metro-cross" fill="#C10000" d="M16.418,20.336L16.418,20.336l-5.026-5.027l5.026-5.027l0,0
	c0.2-0.202,0.2-0.53,0-0.732l-2.375-2.375c-0.203-0.202-0.53-0.202-0.732,0l0,0l-5.026,5.026L3.258,7.175l0,0
	c-0.202-0.201-0.529-0.201-0.731,0L0.151,9.551c-0.202,0.202-0.202,0.529,0,0.731l0,0l5.027,5.027l-5.027,5.027l0,0
	c-0.202,0.202-0.202,0.529,0,0.731l2.374,2.375c0.202,0.2,0.53,0.2,0.732,0l0,0l5.027-5.027l5.027,5.027l0,0
	c0.202,0.2,0.529,0.2,0.731,0l2.375-2.375C16.618,20.865,16.618,20.538,16.418,20.336z"/>
</svg>
