<svg xmlns="http://www.w3.org/2000/svg" width="17" height="17" viewBox="0 0 17.87 20.849"><defs><style>.a{fill:#707070;}</style></defs><path class="a" d="M19.65,6.624a2.707,2.707,0,0,1,.558.884,2.685,2.685,0,0,1,.233,1.024v13.4a1.112,1.112,0,0,1-1.117,1.117H3.688a1.112,1.112,0,0,1-1.117-1.117V3.32A1.112,1.112,0,0,1,3.688,2.2H14.112a2.686,2.686,0,0,1,1.024.233,2.707,2.707,0,0,1,.884.558ZM14.484,3.786V8.16h4.374a1.271,1.271,0,0,0-.256-.477L14.961,4.042a1.271,1.271,0,0,0-.477-.256Zm4.468,17.777V9.649h-4.84a1.112,1.112,0,0,1-1.117-1.117V3.693H4.06v17.87H18.952ZM7.562,18.84v1.233h3.269V18.84H9.958l1.2-1.873a1.668,1.668,0,0,0,.116-.192q.058-.111.087-.157t.041-.047h.023a.4.4,0,0,0,.058.116.65.65,0,0,0,.052.087q.029.041.07.093l.076.1,1.245,1.873h-.884v1.233h3.386V18.84h-.791L12.4,15.664l2.269-3.281h.779V11.139H12.2v1.245h.861l-1.2,1.85q-.047.081-.116.192t-.1.157l-.023.035H11.6a.4.4,0,0,0-.058-.116,1.388,1.388,0,0,0-.2-.268l-1.233-1.85h.884V11.139H7.62v1.245h.791l2.2,3.165L8.353,18.84H7.562Z" transform="translate(-2.571 -2.204)"/></svg>