<svg id="Delete_Icon" xmlns="http://www.w3.org/2000/svg" width="14.356" height="15.836" viewBox="0 0 14.356 15.836">
  <defs>
    <style>
      .cls-1 {
        fill: #fff;
      }
    </style>
  </defs>
  <path id="Icon_awesome-trash-alt" data-name="Icon awesome-trash-alt" class="cls-1" d="M1.025,14.351a1.512,1.512,0,0,0,1.538,1.485h9.229a1.512,1.512,0,0,0,1.538-1.485V3.959H1.025ZM9.742,6.433a.513.513,0,0,1,1.025,0v6.928a.513.513,0,0,1-1.025,0Zm-3.076,0a.513.513,0,0,1,1.025,0v6.928a.513.513,0,0,1-1.025,0Zm-3.076,0a.513.513,0,0,1,1.025,0v6.928a.513.513,0,0,1-1.025,0ZM13.844.99H10L9.7.411A.772.772,0,0,0,9.008,0H5.345a.763.763,0,0,0-.686.411l-.3.578H.513A.5.5,0,0,0,0,1.485v.99a.5.5,0,0,0,.513.495H13.844a.5.5,0,0,0,.513-.495v-.99A.5.5,0,0,0,13.844.99Z" transform="translate(0 0)"/>
</svg>
