<?xml version="1.0" encoding="utf-8"?>
<!-- Generator: Adobe Illustrator 16.0.0, SVG Export Plug-In . SVG Version: 6.00 Build 0)  -->
<!DOCTYPE svg PUBLIC "-//W3C//DTD SVG 1.1//EN" "http://www.w3.org/Graphics/SVG/1.1/DTD/svg11.dtd">
<svg version="1.1" id="Layer_1" focusable="false" xmlns="http://www.w3.org/2000/svg" xmlns:xlink="http://www.w3.org/1999/xlink"
	 x="0px" y="0px" width="36.684px" height="37.858px" viewBox="159.375 102.767 36.684 37.858"
	 enable-background="new 159.375 102.767 36.684 37.858" xml:space="preserve">
<path fill="#C6C6C6" d="M193.52,118.3H181.7V106.48c0-1.451-1.176-2.627-2.626-2.627h-2.627c-1.45,0-2.626,1.176-2.626,2.627V118.3
	h-11.82c-1.45,0-2.626,1.176-2.626,2.627v2.625c0,1.451,1.176,2.627,2.626,2.627h11.82v11.819c0,1.451,1.176,2.627,2.626,2.627
	h2.627c1.45,0,2.626-1.176,2.626-2.627v-11.819h11.82c1.45,0,2.626-1.176,2.626-2.627v-2.625
	C196.146,119.476,194.97,118.3,193.52,118.3z"/>
</svg>
