<svg xmlns="http://www.w3.org/2000/svg" width="18" height="13.5" viewBox="0 0 18 13.5">
  <path id="Icon_awesome-pager" data-name="Icon awesome-pager" d="M15.75,4.5H2.25A2.25,2.25,0,0,0,0,6.75v9A2.25,2.25,0,0,0,2.25,18h13.5A2.25,2.25,0,0,0,18,15.75v-9A2.25,2.25,0,0,0,15.75,4.5ZM5.625,15.188H2.813a.562.562,0,0,1-.562-.562v-.562a.562.562,0,0,1,.563-.562H5.625Zm4.5-.562a.562.562,0,0,1-.562.563H6.75V13.5H9.563a.562.562,0,0,1,.563.563Zm5.625-4.5a1.125,1.125,0,0,1-1.125,1.125H3.375A1.125,1.125,0,0,1,2.25,10.125V7.875A1.125,1.125,0,0,1,3.375,6.75h11.25A1.125,1.125,0,0,1,15.75,7.875Z" transform="translate(0 -4.5)" fill="#fff"/>
</svg>
