<svg xmlns="http://www.w3.org/2000/svg" width="15.228" height="15.228" viewBox="0 0 15.228 15.228">
  <path id="Icon_awesome-coins" data-name="Icon awesome-coins" d="M0,12.055v1.27c0,1.05,2.558,1.9,5.711,1.9s5.711-.854,5.711-1.9v-1.27c-1.228.866-3.474,1.27-5.711,1.27S1.228,12.92,0,12.055ZM9.518,3.807c3.153,0,5.711-.854,5.711-1.9S12.67,0,9.518,0,3.807.854,3.807,1.9,6.365,3.807,9.518,3.807ZM0,8.935v1.535c0,1.05,2.558,1.9,5.711,1.9s5.711-.854,5.711-1.9V8.935a9.578,9.578,0,0,1-5.711,1.535A9.578,9.578,0,0,1,0,8.935Zm12.373.327c1.7-.33,2.855-.943,2.855-1.648V6.344A7.3,7.3,0,0,1,12.373,7.37Zm-6.662-4.5C2.558,4.759,0,5.824,0,7.138S2.558,9.518,5.711,9.518s5.711-1.065,5.711-2.379S8.863,4.759,5.711,4.759Zm6.523,1.674c1.785-.321,3-.952,3-1.674V3.489a9.683,9.683,0,0,1-4.78,1.243A3.331,3.331,0,0,1,12.233,6.433Z" fill="#fff"/>
</svg>
