<?xml version="1.0" encoding="utf-8"?>
<!-- Generator: Adobe Illustrator 16.0.0, SVG Export Plug-In . SVG Version: 6.00 Build 0)  -->
<!DOCTYPE svg PUBLIC "-//W3C//DTD SVG 1.1//EN" "http://www.w3.org/Graphics/SVG/1.1/DTD/svg11.dtd">
<svg version="1.1" id="Layer_1" focusable="false" xmlns="http://www.w3.org/2000/svg" xmlns:xlink="http://www.w3.org/1999/xlink"
	 x="0px" y="0px" width="25.845px" height="16.055px" viewBox="160.51 538.325 25.845 16.055"
	 enable-background="new 160.51 538.325 25.845 16.055" xml:space="preserve">
<path fill="#FFFFFF" d="M176.108,541.502l-2.722-2.722c-0.292-0.292-0.688-0.456-1.102-0.456h-8.699
	c-0.86,0-1.558,0.697-1.558,1.558v11.422c0,0.859,0.697,1.557,1.558,1.557h11.421c0.86,0,1.558-0.697,1.558-1.557v-8.7
	C176.564,542.191,176.4,541.794,176.108,541.502z M169.104,550.785c-1.146,0-2.076-0.93-2.076-2.076c0-1.147,0.93-2.077,2.076-2.077
	c1.147,0,2.077,0.93,2.077,2.077C171.182,549.855,170.252,550.785,169.104,550.785z M172.22,540.904v3.261
	c0,0.216-0.174,0.391-0.389,0.391h-7.528c-0.215,0-0.389-0.175-0.389-0.391v-3.374c0-0.215,0.174-0.389,0.389-0.389h7.415
	c0.103,0,0.202,0.041,0.275,0.114l0.113,0.113C172.179,540.702,172.22,540.8,172.22,540.904z"/>
</svg>
