<?xml version="1.0" encoding="utf-8"?>
<!-- Generator: Adobe Illustrator 23.0.1, SVG Export Plug-In . SVG Version: 6.00 Build 0)  -->
<svg version="1.1" id="Layer_1" focusable="false" xmlns="http://www.w3.org/2000/svg" xmlns:xlink="http://www.w3.org/1999/xlink"
	 x="0px" y="0px" viewBox="0 0 23.9 4.1" style="enable-background:new 0 0 23.9 4.1;" xml:space="preserve">
<style type="text/css">
	.st0{fill:#D3D3D3;}
</style>
<path class="st0" d="M3.8,2c0.6,0,1-0.5,1-1s-0.5-1-1-1s-1,0.5-1,1S3.2,2,3.8,2z M4.5,2.3H4.4C4.2,2.4,4,2.4,3.8,2.4
	c-0.2,0-0.4,0-0.6-0.1H3.1C2.5,2.3,2,2.8,2,3.4v0.3c0,0.2,0.2,0.4,0.4,0.4h2.8c0.2,0,0.4-0.2,0.4-0.4V3.4C5.6,2.8,5.1,2.3,4.5,2.3z"
	/>
</svg>
