<?xml version="1.0" encoding="utf-8"?>
<!-- Generator: Adobe Illustrator 23.0.1, SVG Export Plug-In . SVG Version: 6.00 Build 0)  -->
<svg version="1.1" id="Layer_1" focusable="false" xmlns="http://www.w3.org/2000/svg" xmlns:xlink="http://www.w3.org/1999/xlink"
	 x="0px" y="0px" viewBox="0 0 221 36.5" style="enable-background:new 0 0 221 36.5;" xml:space="preserve">
<style type="text/css">
	.st0{fill:#D3D3D3;}
</style>
<path class="st0" d="M19.8,15.6c2.9,0,5.2-2.3,5.2-5.2s-2.3-5.2-5.2-5.2s-5.2,2.3-5.2,5.2S16.9,15.6,19.8,15.6z M56.3,15.6
	c2.9,0,5.2-2.3,5.2-5.2s-2.3-5.2-5.2-5.2c-2.9,0-5.2,2.3-5.2,5.2S53.4,15.6,56.3,15.6z M58.9,18.3h-5.2c-1.4,0-2.7,0.6-3.7,1.5
	c3.3,1.8,5.6,5.1,6.1,8.9h5.4c1.4,0,2.6-1.2,2.6-2.6v-2.6C64.1,20.6,61.8,18.3,58.9,18.3z M38.1,18.3c5,0,9.1-4.1,9.1-9.1
	S43.1,0,38.1,0s-9.1,4.1-9.1,9.1S33,18.3,38.1,18.3z M44.3,20.9h-0.7c-1.7,0.8-3.6,1.3-5.6,1.3c-2,0-3.9-0.5-5.6-1.3h-0.7
	c-5.2,0-9.4,4.2-9.4,9.4v2.3c0,2.2,1.8,3.9,3.9,3.9h23.5c2.2,0,3.9-1.8,3.9-3.9v-2.3C53.7,25.1,49.5,20.9,44.3,20.9z M26.1,19.8
	c-0.9-0.9-2.2-1.5-3.7-1.5h-5.2c-2.9,0-5.2,2.3-5.2,5.2v2.6c0,1.4,1.2,2.6,2.6,2.6H20C20.5,24.8,22.8,21.6,26.1,19.8L26.1,19.8z"/>
</svg>
