<?xml version="1.0" encoding="utf-8"?><svg xml:space="preserve" viewBox="0 0 100 100" y="0" x="0" xmlns="http://www.w3.org/2000/svg" id="圖層_1" version="1.1" width="128px" height="128px" xmlns:xlink="http://www.w3.org/1999/xlink" style="width:100%;height:100%;background-size:initial;background-repeat-y:initial;background-repeat-x:initial;background-position-y:initial;background-position-x:initial;background-origin:initial;background-image:initial;background-color:rgb(255, 255, 255);background-clip:initial;background-attachment:initial;animation-play-state:paused" ><g class="ldl-scale" style="transform-origin:50% 50%;transform:rotate(0deg) scale(0.8, 0.8);animation-play-state:paused" ><path stroke-miterlimit="10" stroke-width="3.5" stroke="#333" fill="#f47e60" d="M70.219 86.718h0a3.078 3.078 0 0 1-4.015-.837l-9.669-13.097a4.915 4.915 0 0 1 1.496-7.175h0a4.915 4.915 0 0 1 6.962 2.291l6.508 14.922a3.078 3.078 0 0 1-1.282 3.896z" style="stroke:rgb(51, 51, 51);fill:rgb(244, 126, 96);animation-play-state:paused" ></path>
<path opacity=".2" d="M73.105 82.123l-6.508-14.922a6.673 6.673 0 0 0-4.024-3.666c-.049-.016-.098-.025-.147-.04a9.355 9.355 0 0 1 1.096 2.493l5.974 22.06c.065.241.113.483.151.725a4.814 4.814 0 0 0 1.447-.54 4.823 4.823 0 0 0 2.011-6.11z" style="animation-play-state:paused" ></path>
<path stroke-miterlimit="10" stroke-width="3.5" stroke="#333" fill="#f47e60" d="M29.781 86.718h0a3.078 3.078 0 0 1-1.282-3.896L35.007 67.9a4.914 4.914 0 0 1 6.962-2.291h0a4.915 4.915 0 0 1 1.496 7.175l-9.669 13.097a3.077 3.077 0 0 1-4.015.837z" style="stroke:rgb(51, 51, 51);fill:rgb(244, 126, 96);animation-play-state:paused" ></path>
<path opacity=".2" d="M46.035 68.505a6.674 6.674 0 0 0-3.191-4.412 6.688 6.688 0 0 0-1.143-.516 8.642 8.642 0 0 1-1.202 5.278l-10.906 18.06c-.26.431-.566.819-.906 1.164.076.049.14.11.219.156a4.823 4.823 0 0 0 6.298-1.314l9.668-13.097a6.67 6.67 0 0 0 1.163-5.319z" style="animation-play-state:paused" ></path>
<circle stroke-miterlimit="10" stroke-width="3.5" stroke="#333" fill="#f5e6c8" r="28.25" cy="51.698" cx="50" style="stroke:rgb(51, 51, 51);fill:rgb(245, 230, 200);animation-play-state:paused" ></circle>
<circle stroke-miterlimit="10" stroke-width="3.5" stroke="#333" fill="#f5e6c8" r="20" cy="51.698" cx="50" style="stroke:rgb(51, 51, 51);fill:rgb(245, 230, 200);animation-play-state:paused" ></circle>
<path stroke-miterlimit="10" stroke-linecap="round" stroke-width="3.5" stroke="#fff" fill="#f5e6c8" d="M37.68 44.447a20.107 20.107 0 0 1 4.861-4.72" style="stroke:rgb(255, 255, 255);fill:rgb(245, 230, 200);animation-play-state:paused" ></path>
<path stroke-miterlimit="10" stroke-linecap="round" stroke-width="3.5" stroke="#fff" fill="#f5e6c8" d="M34.704 50.403c.11-.363.231-.722.361-1.076" style="stroke:rgb(255, 255, 255);fill:rgb(245, 230, 200);animation-play-state:paused" ></path>
<circle fill="#333" r="5" cy="51.698" cx="50" style="fill:rgb(51, 51, 51);animation-play-state:paused" ></circle>
<path stroke-miterlimit="10" stroke-width="3.5" stroke="#333" fill="#f8b26a" d="M50 23.448c-15.602 0-28.25 12.648-28.25 28.25S34.398 79.948 50 79.948 78.25 67.3 78.25 51.698 65.602 23.448 50 23.448zm0 48.25c-11.046 0-20-8.954-20-20s8.954-20 20-20 20 8.954 20 20-8.954 20-20 20z" style="stroke:rgb(51, 51, 51);fill:rgb(248, 178, 106);animation-play-state:paused" ></path>
<g opacity=".2" style="animation-play-state:paused" ><path d="M20.335 47.224A30.146 30.146 0 0 0 20 51.698c0 1.727.155 3.418.436 5.066-.082-2.18-.127-4.392-.127-6.635.001-.974.01-1.942.026-2.905z" style="animation-play-state:paused" ></path>
<path d="M59.631 23.293c.521 3.072.955 6.29 1.294 9.626a21.564 21.564 0 0 0-7.811-2.745c4.577 5.973 7.306 13.434 7.306 21.524s-2.729 15.551-7.306 21.524a21.597 21.597 0 0 0 7.422-2.508c-.415 3.341-.92 6.557-1.52 9.598C71.166 76.475 80 65.1 80 51.698c0-13.173-8.538-24.382-20.369-28.405z" style="animation-play-state:paused" ></path></g>
<path stroke-miterlimit="10" stroke-linejoin="round" stroke-width="3.5" stroke="#333" fill="#f47e60" d="M43.242 18.2L19.189 35.042h0c-3.96-5.655-2.585-13.449 3.07-17.409l3.574-2.502c5.655-3.96 13.449-2.586 17.409 3.069h0z" style="stroke:rgb(51, 51, 51);fill:rgb(244, 126, 96);animation-play-state:paused" ></path>
<path stroke-miterlimit="10" stroke-linejoin="round" stroke-width="3.5" stroke="#333" fill="#f47e60" d="M56.758 18.2L80.81 35.042h0c3.96-5.655 2.585-13.449-3.07-17.409l-3.574-2.502c-5.654-3.96-13.448-2.586-17.408 3.069h0z" style="stroke:rgb(51, 51, 51);fill:rgb(244, 126, 96);animation-play-state:paused" ></path>
<path opacity=".2" d="M44.675 17.196a14.154 14.154 0 0 0-9.198-5.86 14.155 14.155 0 0 0-8.193.977c1.846.261 3.578.95 5.106 2.105 2.807 2.123 4.656 5.542 5.364 9.761l6.492-4.546a1.75 1.75 0 0 0 .429-2.437z" style="animation-play-state:paused" ></path>
<path opacity=".2" d="M84.605 25.398a14.158 14.158 0 0 0-5.86-9.199l-3.573-2.502a14.231 14.231 0 0 0-4.95-2.208 15.391 15.391 0 0 1 1.501 1.666l2.829 3.702a15.121 15.121 0 0 1 2.992 11.26 15.205 15.205 0 0 1-1.842 5.484l4.105 2.874a1.75 1.75 0 0 0 2.438-.43 14.154 14.154 0 0 0 2.36-10.647z" style="animation-play-state:paused" ></path>
<path d="M50 51.698v-14.5" stroke-miterlimit="10" stroke-linecap="round" stroke-width="3.5" stroke="#333" fill="none" style="stroke:rgb(51, 51, 51);animation-play-state:paused" ></path>
<path d="M50 51.698h10.5" stroke-miterlimit="10" stroke-linecap="round" stroke-width="3.5" stroke="#333" fill="none" style="stroke:rgb(51, 51, 51);animation-play-state:paused" ></path>
<path stroke-miterlimit="10" stroke-linecap="round" stroke-width="3.5" stroke="#fff" fill="none" d="M70.516 18.179c-2.099-1.106-4.461-.791-5.84-.33" style="stroke:rgb(255, 255, 255);animation-play-state:paused" ></path>
<path stroke-miterlimit="10" stroke-linecap="round" stroke-width="3.5" stroke="#fff" fill="none" d="M28.006 18.701c-1.842 1.347-4.293 2.952-4.593 3.646" style="stroke:rgb(255, 255, 255);animation-play-state:paused" ></path>
<metadata xmlns:d="https://loading.io/stock/" style="animation-play-state:paused" ><d:name style="animation-play-state:paused" >alarm</d:name>
<d:tags style="animation-play-state:paused" >alarm,clock,alert,watch,time,wake up,get up,timeup,countdown,temporal</d:tags>
<d:license style="animation-play-state:paused" >by</d:license>
<d:slug style="animation-play-state:paused" >hro7lg</d:slug></metadata></g><!-- generated by https://loading.io/ --></svg>