<svg xmlns="http://www.w3.org/2000/svg" width="90.003" height="90.003" viewBox="0 0 90.003 90.003"><defs><style>.a{fill:#ff5700;}</style></defs><g transform="translate(21.37 11.308)"><path class="a" d="M187.627,65.324a3.391,3.391,0,0,0-4.8-.006L142.137,105.9,127.455,89.958a3.392,3.392,0,0,0-4.991,4.6L139.538,113.1a3.388,3.388,0,0,0,2.423,1.093h.072a3.4,3.4,0,0,0,2.395-.989L187.62,70.121A3.392,3.392,0,0,0,187.627,65.324Z" transform="translate(-121.568 -64.327)"/></g><path class="a" d="M86.611,41.609A3.392,3.392,0,0,0,83.219,45,38.217,38.217,0,1,1,45,6.784,3.392,3.392,0,1,0,45,0,45,45,0,1,0,90,45,3.392,3.392,0,0,0,86.611,41.609Z"/></svg>