<?xml version="1.0" encoding="utf-8"?>
<!-- Generator: Adobe Illustrator 24.1.1, SVG Export Plug-In . SVG Version: 6.00 Build 0)  -->
<svg version="1.1" id="Layer_1" xmlns="http://www.w3.org/2000/svg" xmlns:xlink="http://www.w3.org/1999/xlink" x="0px" y="0px"
	 viewBox="0 0 512 345" style="enable-background:new 0 0 512 345;" xml:space="preserve">
<style type="text/css">
	.st0{fill:#957856;}
	.st1{fill:#C0AB91;}
	.st2{fill:#E0E0E2;}
	.st3{fill:#FFB655;}
	.st4{fill:#FF9811;}
	.st5{fill:#FFDA44;}
</style>
<path class="st0" d="M448,304c0,8.8-7.2,16-16,16H48c-8.8,0-16-7.2-16-16V48c0-8.7,6.9-15.7,15.6-16H432c8.8,0,16,7.2,16,16V304z"/>
<path class="st1" d="M400,128h64c17.7,0,32,14.3,32,32v32c0,17.7-14.3,32-32,32h-64c-17.7,0-32-14.3-32-32v-32
	C368,142.3,382.3,128,400,128z"/>
<circle class="st2" cx="416" cy="176" r="16"/>
<path class="st3" d="M168,248c48.6,0,88-7.2,88-16v40c0,8.8-39.4,16-88,16s-88-7.2-88-16v-40C80,240.8,119.4,248,168,248z"/>
<ellipse class="st4" cx="168" cy="232" rx="88" ry="16"/>
<path class="st5" d="M216,208c48.6,0,88-7.2,88-16v40c0,8.8-39.4,16-88,16s-88-7.2-88-16v-40C128,200.8,167.4,208,216,208z"/>
<ellipse class="st4" cx="216" cy="192" rx="88" ry="16"/>
<path class="st3" d="M152,168c48.6,0,88-7.2,88-16v40c0,8.8-39.4,16-88,16s-88-7.2-88-16v-40C64,160.8,103.4,168,152,168z"/>
<ellipse class="st4" cx="152" cy="152" rx="88" ry="16"/>
<path class="st5" d="M272,112v40c0,8.8-39.4,16-88,16s-88-7.2-88-16v-40c0,8.8,39.4,16,88,16S272,120.8,272,112z"/>
<ellipse class="st4" cx="184" cy="112" rx="88" ry="16"/>
</svg>
